<?xml version="1.0" standalone="no"?>
<!DOCTYPE svg PUBLIC "-//W3C//DTD SVG 20010904//EN"
 "http://www.w3.org/TR/2001/REC-SVG-20010904/DTD/svg10.dtd">
<svg version="1.0" xmlns="http://www.w3.org/2000/svg"
 width="1600.000000pt" height="899.000000pt" viewBox="0 0 1600.000000 899.000000"
 preserveAspectRatio="xMidYMid meet">

<g transform="translate(0.000000,899.000000) scale(0.100000,-0.100000)"
fill="#000000" stroke="none">
<path d="M2920 4715 c0 -885 3 -1115 13 -1116 6 -1 2226 0 4932 0 2706 1 4926
1 4933 1 9 0 12 230 12 1115 l0 1115 -4945 0 -4945 0 0 -1115z m9880 0 l0
-1105 -4935 0 -4935 0 0 1105 0 1105 4935 0 4935 0 0 -1105z"/>
<path d="M3100 4705 l0 -945 2005 0 2005 0 0 945 0 945 -2005 0 -2005 0 0
-945z m2172 360 c250 -53 400 -244 344 -438 -32 -111 -134 -201 -287 -253 -75
-26 -97 -29 -204 -28 -101 0 -132 5 -197 26 -244 81 -360 276 -275 461 49 107
179 201 321 232 81 18 216 18 298 0z m1142 -5 c141 -36 259 -117 308 -214 30
-57 36 -167 13 -235 -36 -110 -167 -209 -331 -251 -240 -62 -521 34 -619 211
-27 48 -30 63 -30 139 0 75 3 91 29 138 62 111 199 201 346 225 72 12 211 6
284 -13z m-2294 -287 c0 -217 4 -305 13 -323 22 -45 85 -67 212 -75 234 -15
92 -25 -346 -25 -436 0 -568 10 -337 25 124 8 178 24 208 63 19 23 20 41 20
244 l0 220 -28 28 c-34 33 -102 50 -207 50 -123 0 -85 16 68 28 80 7 181 22
232 35 50 14 107 25 128 26 l37 1 0 -297z"/>
<path d="M5036 5050 c-16 -5 -44 -24 -62 -41 -54 -52 -64 -99 -64 -295 0 -149
3 -181 20 -227 33 -87 93 -127 193 -127 70 0 114 15 154 53 58 54 68 99 68
302 l0 180 -30 60 c-39 78 -88 105 -184 104 -36 0 -79 -5 -95 -9z"/>
<path d="M6143 5041 c-90 -42 -117 -127 -112 -359 4 -147 6 -161 31 -212 37
-75 78 -101 167 -108 118 -8 185 29 220 124 18 47 21 78 21 218 0 227 -23 296
-114 337 -55 25 -157 25 -213 0z"/>
<path d="M9075 5305 c-65 -11 -186 -63 -199 -84 -3 -5 5 -16 19 -25 l25 -16 0
-180 0 -180 -35 0 c-31 0 -35 -3 -44 -37 -6 -20 -9 -38 -8 -40 2 -1 19 2 38 7
46 13 49 13 49 -9 0 -13 -11 -23 -35 -31 -19 -6 -35 -16 -35 -21 0 -5 11 -4
26 1 14 6 30 10 35 10 5 0 9 -53 9 -121 l0 -121 -36 -41 -35 -42 65 -3 c36 -2
96 -2 132 0 l65 3 -36 46 -36 46 3 159 3 158 70 12 c39 6 74 8 79 3 19 -17 -5
-38 -58 -50 l-56 -12 0 -150 0 -149 41 -52 41 -51 -144 -5 -143 -6 158 -2 c86
-1 157 -1 157 1 0 2 -22 32 -50 68 l-50 64 0 131 0 131 60 20 60 19 14 -45
c26 -81 56 -207 76 -327 11 -65 22 -119 24 -121 2 -3 26 11 53 30 26 19 67 44
91 56 l43 22 -30 34 c-62 71 -134 199 -184 325 -41 108 -41 104 -3 118 48 18
121 85 145 135 39 81 22 178 -42 245 -42 44 -89 68 -162 81 -69 13 -70 13
-160 -4z m148 -59 c44 -18 95 -78 103 -121 10 -57 -1 -122 -29 -164 -26 -39
-114 -91 -179 -107 l-28 -6 0 170 0 170 30 7 c48 10 105 -4 152 -38 38 -27 41
-28 27 -7 -26 40 -77 60 -151 60 l-68 0 0 -180 c0 -173 -1 -180 -20 -180 -19
0 -20 7 -20 190 l0 191 33 14 c41 18 109 19 150 1z"/>
<path d="M12229 5304 c-105 -32 -165 -136 -157 -269 9 -134 74 -202 230 -240
173 -42 230 -91 236 -204 3 -56 0 -71 -20 -101 -32 -48 -80 -70 -153 -70 -112
1 -191 62 -222 173 -9 31 -20 57 -24 57 -4 0 -10 -15 -13 -32 -3 -18 -26 -77
-50 -130 -24 -54 -43 -98 -42 -98 2 0 18 8 36 17 37 18 52 16 205 -26 134 -38
230 -21 303 50 57 57 76 101 80 189 6 108 -9 153 -71 215 -47 46 -63 55 -157
85 -190 60 -230 93 -230 187 0 67 25 114 74 137 96 45 204 -12 237 -124 18
-65 25 -67 44 -13 17 44 59 152 72 180 4 10 -4 9 -29 -1 -31 -14 -43 -13 -128
10 -106 27 -154 29 -221 8z"/>
<path d="M7305 5283 c4 -10 24 -63 44 -118 l35 -100 8 45 c14 82 41 110 120
125 43 8 78 -1 78 -21 0 -9 -11 -14 -36 -14 -57 0 -100 -26 -118 -71 -17 -43
-21 -83 -7 -75 4 3 11 23 15 44 8 51 35 74 96 80 l50 5 0 -365 0 -364 -35 -34
c-19 -19 -35 -38 -35 -42 0 -4 59 -8 130 -8 72 0 130 4 130 8 0 4 -16 23 -35
42 l-35 34 0 393 0 393 51 0 c91 0 137 -38 155 -129 8 -37 19 -33 27 9 4 17
22 64 41 105 l35 75 -361 0 c-339 0 -360 -1 -353 -17z"/>
<path d="M8119 5254 l41 -47 0 -156 0 -156 -37 -20 c-37 -20 -92 -99 -78 -113
3 -4 11 1 16 11 11 19 60 47 84 47 26 0 16 -19 -17 -33 -34 -15 -79 -57 -61
-57 5 0 18 9 28 20 10 11 29 20 42 20 l23 0 0 -153 0 -153 -40 -39 c-22 -21
-40 -43 -40 -47 0 -4 62 -8 137 -8 l137 0 -37 38 -37 38 0 179 0 180 130 0
c95 0 130 -3 130 -12 0 -17 -54 -25 -148 -21 l-82 3 0 -168 0 -168 40 -54 40
-54 -147 -4 -148 -3 163 -2 162 -2 -50 69 -51 70 3 146 3 147 108 1 107 2 0
-150 0 -149 -42 -43 -42 -43 137 0 c128 0 137 1 128 18 -5 9 -21 28 -35 41
l-26 24 0 378 c0 221 4 380 9 384 5 3 24 23 41 45 l32 40 -138 0 -138 0 37
-38 37 -38 0 -166 0 -165 -31 -7 c-40 -8 -103 -8 -151 0 l-38 7 0 144 0 145
31 40 c39 49 31 62 -10 16 l-30 -33 -1 -157 c0 -134 -2 -158 -15 -158 -13 0
-15 25 -15 163 0 163 0 164 26 188 14 13 30 32 35 42 9 16 0 17 -126 17 l-137
0 41 -46z"/>
<path d="M9668 5257 l43 -43 -3 -153 -3 -153 -35 -12 c-20 -6 -44 -25 -57 -45
-31 -46 -29 -54 10 -31 44 26 81 29 85 8 2 -11 -8 -20 -35 -28 -42 -14 -60
-26 -51 -36 3 -3 20 2 37 10 16 9 35 16 41 16 6 0 10 -56 10 -162 l0 -163 -42
-37 -43 -37 334 -1 333 0 -26 35 c-34 45 -76 134 -76 163 0 34 -15 26 -36 -20
-10 -23 -29 -55 -42 -70 -28 -32 -104 -58 -174 -58 l-48 0 0 175 0 175 60 0
c33 0 60 4 60 10 0 6 -30 10 -70 10 l-70 0 0 -185 c0 -178 -1 -185 -20 -185
-19 0 -20 7 -20 200 l0 200 84 0 84 0 32 -50 c18 -27 34 -50 36 -50 2 0 4 64
4 143 l-1 142 -35 -57 -36 -58 -54 0 -54 0 0 134 0 134 45 6 c63 10 114 -2
159 -36 l38 -31 -17 27 c-32 48 -110 72 -199 60 l-46 -7 0 -143 c0 -137 -1
-144 -20 -144 -19 0 -20 7 -20 165 l0 165 98 0 c129 0 156 -13 200 -99 17 -35
32 -57 32 -49 0 8 22 58 49 111 l48 97 -316 0 -315 0 42 -43z"/>
<path d="M10689 5258 l30 -43 -38 -122 c-20 -68 -40 -126 -44 -130 -4 -3 -18
4 -32 17 -37 35 -43 16 -6 -22 33 -33 37 -43 22 -52 -5 -3 -23 10 -40 30 -27
30 -32 33 -37 17 -4 -10 -15 -37 -24 -60 -19 -44 -17 -53 11 -53 9 0 26 -8 38
-17 l21 -18 -26 -90 c-37 -131 -86 -226 -146 -286 l-52 -52 -33 39 c-18 21
-47 68 -65 103 -18 35 -34 59 -36 53 -4 -14 44 -109 80 -154 22 -28 27 -43 22
-62 l-6 -26 -332 -3 -331 -2 336 -3 336 -2 11 25 c11 24 13 24 156 27 l145 3
-29 43 c-43 65 -46 104 -14 231 15 61 31 111 36 111 18 0 19 -29 3 -81 -42
-144 -39 -215 14 -300 l30 -48 -152 -4 -152 -3 163 -2 c89 -1 162 0 162 2 0 3
-17 33 -37 68 -34 56 -38 70 -37 128 0 61 29 190 43 190 3 0 26 -35 51 -79
l45 -78 23 39 c29 52 81 118 93 118 18 0 8 -23 -41 -97 -27 -41 -50 -80 -49
-86 0 -7 6 -4 12 7 43 66 84 121 91 121 4 0 22 -44 39 -98 l31 -97 -37 -38
c-20 -21 -37 -41 -37 -45 0 -4 66 -7 147 -7 l147 0 -46 48 c-43 44 -48 57 -98
221 -58 191 -58 191 13 191 26 0 37 4 35 13 -2 6 -12 40 -23 75 l-18 62 -24
-22 c-12 -12 -25 -20 -27 -17 -2 2 -22 61 -43 130 l-40 126 28 39 c29 40 35
54 22 54 -12 -1 -63 -76 -63 -93 0 -8 18 -73 40 -145 45 -146 44 -142 28 -142
-8 0 -32 63 -60 153 l-47 152 30 43 30 42 -136 0 -136 0 30 -42z m81 -150 c0
-11 -16 -73 -36 -138 l-36 -117 37 -49 c48 -62 61 -92 49 -104 -7 -7 -29 19
-65 72 l-55 83 44 142 c41 129 62 167 62 111z m90 -296 c0 -7 -12 -29 -26 -48
l-27 -34 -43 66 -44 67 32 101 32 101 38 -120 c21 -66 38 -126 38 -133z"/>
<path d="M11359 5258 l31 -42 0 -380 0 -380 -42 -44 -43 -44 185 5 c208 6 252
16 319 73 89 77 131 203 131 393 0 167 -30 275 -98 356 -69 82 -146 105 -360
105 l-154 0 31 -42z m321 -49 c81 -46 119 -142 127 -325 6 -125 -10 -240 -42
-318 -34 -80 -108 -136 -182 -136 l-23 0 0 375 0 375 39 0 c21 0 58 -7 82 -15
44 -15 44 -15 21 5 -24 20 -91 34 -133 28 l-24 -3 -3 -382 c-2 -331 -4 -383
-17 -383 -13 0 -15 53 -15 406 l0 407 66 -6 c39 -4 81 -15 104 -28z"/>
<path d="M8019 5228 c-32 -62 -69 -177 -60 -183 5 -2 21 30 36 73 15 42 35 91
45 109 11 18 15 35 10 38 -5 3 -19 -13 -31 -37z"/>
<path d="M8721 5231 l-31 -39 0 -374 0 -374 41 -55 40 -54 -143 -5 -143 -6
158 -2 c124 -2 157 1 151 11 -4 6 -25 35 -46 64 l-38 52 0 374 c0 367 0 374
21 393 26 24 43 54 30 54 -5 0 -23 -18 -40 -39z"/>
<path d="M12585 5159 c-25 -61 -44 -114 -41 -117 9 -9 13 -2 56 103 22 55 43
106 47 113 3 6 1 12 -5 12 -5 0 -31 -50 -57 -111z"/>
<path d="M10261 5231 c-28 -39 -83 -160 -79 -172 2 -5 27 36 56 92 53 103 62
135 23 80z"/>
<path d="M12252 5192 c-53 -49 -55 -132 -4 -184 31 -33 55 -38 25 -5 -53 58
-59 123 -14 168 25 24 37 29 80 29 47 0 56 -4 98 -42 l46 -43 -17 33 c-24 47
-70 72 -132 72 -43 0 -57 -5 -82 -28z"/>
<path d="M7740 4824 l0 -376 41 -56 40 -57 -143 -5 -143 -6 158 -2 c124 -2
157 1 150 11 -4 6 -24 36 -45 66 l-38 54 0 364 0 363 35 0 c20 0 50 -7 67 -16
23 -12 29 -13 26 -2 -7 22 -50 38 -100 38 l-48 0 0 -376z"/>
<path d="M9476 5158 c20 -54 21 -143 1 -189 -20 -49 -71 -105 -123 -135 l-43
-25 19 -52 c47 -135 118 -259 203 -353 l46 -51 -54 -22 c-68 -28 -175 -97
-175 -112 0 -7 11 -4 28 7 74 49 142 86 185 102 26 9 47 19 47 22 0 3 -28 33
-63 67 -73 73 -147 191 -187 302 l-29 79 48 29 c83 52 130 132 131 224 0 46
-25 134 -41 144 -4 3 -1 -13 7 -37z"/>
<path d="M11900 5168 c54 -82 80 -187 80 -330 0 -273 -91 -439 -270 -489 -25
-7 -119 -15 -210 -19 l-165 -7 165 -1 c184 -2 243 8 319 55 64 40 122 129 151
234 31 109 34 318 7 419 -16 57 -77 170 -93 170 -3 0 4 -15 16 -32z"/>
<path d="M10100 4861 c0 -101 4 -161 10 -161 6 0 10 58 10 154 0 93 -4 157
-10 161 -7 4 -10 -50 -10 -154z"/>
<path d="M11096 4935 c4 -16 17 -56 30 -89 l23 -58 -42 5 c-80 11 -80 12 -22
-175 50 -160 55 -170 105 -225 l53 -58 -159 -5 -159 -6 180 -2 179 -2 -65 68
-66 67 -47 151 c-25 83 -46 156 -46 163 0 9 15 11 55 6 30 -4 55 -5 55 -3 0 2
-14 42 -31 89 -31 87 -56 129 -43 74z"/>
<path d="M12120 4829 c18 -33 67 -57 203 -100 90 -28 138 -49 162 -71 41 -36
47 -19 8 21 -20 20 -68 40 -174 74 -102 33 -153 55 -169 72 -28 30 -45 33 -30
4z"/>
<path d="M12648 4770 c23 -46 27 -68 27 -135 0 -71 -4 -88 -33 -148 -77 -156
-212 -200 -420 -138 -76 23 -172 25 -179 5 -3 -8 12 -10 44 -7 33 4 78 -3 143
-21 136 -37 210 -35 291 7 110 56 169 158 169 290 0 82 -14 134 -46 173 -21
27 -21 25 4 -26z"/>
<path d="M12175 4593 c12 -50 37 -92 71 -123 49 -43 59 -37 14 8 -21 21 -46
60 -56 90 -19 54 -41 73 -29 25z"/>
</g>
</svg>
